# xmcd CD database file
#
# Track frame offsets:
#	150
#	27862
#	62161
#	92790
#	131383
#	155161
#	183481
#	231635
#	259972
#	275978
#
# Disc length: 4072 seconds
#
# Revision: 1
# Processed by: cddbd v1.5.2PL0 Copyright (c) Steve Scherf et al.
# Submitted via: CDex 1.51
#
DISCID=990fe60a
DTITLE=PatMethenyGroup  - LiveInTokyo
DYEAR=1995
DGENRE=Jazz
TTITLE0=HaveYouHeard
TTITLE1=AndThenIKnew
TTITLE2=HereToStay
TTITLE3=FirstCircle
TTITLE4=ScrapMetal
TTITLE5=Farmer'sTrust
TTITLE6=EpisodeD'Azur
TTITLE7=ThirdWind
TTITLE8=ThisIsNotAmerica
TTITLE9=Minuendo(Six-Eight)
EXTD=YEAR: 1995
EXTT0=
EXTT1=
EXTT2=
EXTT3=
EXTT4=
EXTT5=
EXTT6=
EXTT7=
EXTT8=
EXTT9=
PLAYORDER=
